<svg width="26" height="26" viewBox="0 0 26 26" fill="none" xmlns="http://www.w3.org/2000/svg">
<path d="M25.7515 6.49451C26.9269 2.64843 23.3645 -0.976737 19.5069 0.239112L19.5044 0.239873L3.48442 5.20394C-1.12254 6.64934 -1.17651 13.1715 3.41398 14.7102L7.79439 16.1857L7.79755 16.1868C8.7442 16.5018 9.49197 17.2326 9.80289 18.1844L9.80581 18.1932L11.2833 22.5642L11.2837 22.5656C12.8297 27.1919 19.335 27.0789 20.7769 22.4662L25.7515 6.49451ZM5.82923 12.2929C5.35489 12.1332 5.09991 11.6192 5.25969 11.1449C5.41947 10.6705 5.9335 10.4155 6.40782 10.5753L10.7864 12.0503L10.788 12.0508C11.2608 12.2083 11.704 12.4335 12.1045 12.7168C12.3621 12.8991 12.6021 13.1056 12.8207 13.3338C13.3197 13.8546 13.7072 14.4874 13.9408 15.2003L15.418 19.5702C15.5782 20.0444 15.3237 20.5588 14.8496 20.719C14.3754 20.8792 13.8612 20.6249 13.7008 20.1507L12.2223 15.7765L12.2194 15.7677C12.0722 15.317 11.828 14.9175 11.512 14.5879C11.3737 14.4435 11.2214 14.3124 11.0573 14.1963C10.802 14.0155 10.5182 13.8712 10.2141 13.77L5.82923 12.2929Z" fill="#BBF451"/>
</svg>
